<?xml version="1.0" standalone="no"?>
<!DOCTYPE svg PUBLIC "-//W3C//DTD SVG 20010904//EN"
 "http://www.w3.org/TR/2001/REC-SVG-20010904/DTD/svg10.dtd">
<svg version="1.0" xmlns="http://www.w3.org/2000/svg"
 width="500.000000pt" height="500.000000pt" viewBox="0 0 500.000000 500.000000"
 preserveAspectRatio="xMidYMid meet">
<metadata>
Created by potrace 1.14, written by Peter Selinger 2001-2017
</metadata>
<g transform="translate(0.000000,500.000000) scale(0.100000,-0.100000)"
fill="#000000" stroke="none">
<path d="M2259 4765 c-2 -2 -33 -6 -69 -9 -190 -17 -450 -97 -675 -207 -165
-80 -200 -100 -322 -186 -436 -303 -753 -758 -886 -1269 -20 -76 -24 -120 -18
-165 4 -26 237 -40 286 -17 21 9 25 20 105 243 233 647 780 1117 1460 1254 82
17 90 18 155 26 116 15 385 9 485 -10 14 -3 51 -10 82 -15 94 -17 260 -67 368
-110 106 -42 243 -110 248 -122 2 -5 8 -8 14 -8 30 0 210 -142 342 -270 214
-209 263 -273 384 -501 116 -219 221 -564 191 -622 -19 -35 -58 -39 -354 -41
l-290 -2 -145 141 c-79 77 -300 295 -491 485 -607 605 -648 639 -827 686 -104
28 -304 25 -401 -5 -263 -81 -466 -293 -530 -551 -37 -151 -16 -343 53 -495
54 -117 98 -164 811 -880 461 -463 538 -536 589 -561 69 -33 138 -36 178 -10
56 37 77 137 43 209 -14 31 -324 352 -865 898 -166 168 -316 325 -395 414
-104 118 -124 286 -52 435 7 14 17 31 22 37 6 7 24 30 40 52 42 54 154 124
224 138 50 11 147 6 201 -10 38 -11 77 -34 125 -74 39 -31 328 -314 643 -627
315 -314 579 -574 585 -577 14 -8 1055 -3 1112 5 22 3 51 14 65 24 23 18 25
25 24 103 -1 78 -9 187 -18 234 -2 11 -7 40 -11 65 -14 85 -16 95 -27 135 -5
22 -12 49 -14 60 -15 82 -94 300 -155 431 -52 110 -168 305 -221 369 -9 11
-39 49 -68 85 -185 234 -461 452 -750 593 -159 77 -186 87 -385 150 -49 15
-202 50 -275 63 -38 6 -585 15 -591 9z"/>
<path d="M2025 3475 c-83 -35 -107 -153 -50 -235 42 -59 391 -423 802 -836
407 -409 515 -530 528 -594 11 -53 13 -151 4 -191 -25 -111 -122 -239 -217
-288 -103 -52 -244 -60 -334 -18 -101 46 -164 105 -876 812 -243 242 -444 442
-447 444 -6 5 -987 3 -1093 -3 -46 -2 -89 -10 -98 -17 -13 -10 -15 -33 -13
-118 2 -58 6 -126 10 -151 4 -25 10 -67 13 -93 51 -382 233 -800 481 -1107 66
-81 136 -160 163 -184 7 -6 31 -29 55 -52 293 -283 749 -509 1158 -573 231
-37 483 -43 671 -16 87 12 108 15 180 29 98 19 297 77 363 105 11 5 45 19 75
31 147 59 388 203 530 317 129 104 311 295 407 428 141 194 240 389 328 646
55 160 69 234 54 275 -10 27 -62 40 -159 38 -121 -2 -128 -3 -143 -19 -8 -7
-37 -83 -65 -168 -58 -176 -101 -273 -178 -405 -260 -441 -692 -766 -1209
-907 -140 -38 -270 -48 -535 -42 -184 4 -254 10 -320 25 -219 51 -429 137
-628 257 -109 65 -282 206 -378 306 -240 253 -401 552 -490 908 -30 121 -32
136 -19 161 8 15 21 30 29 33 33 13 144 19 366 21 l235 1 466 -465 c689 -689
737 -733 864 -795 128 -64 195 -79 345 -79 141 1 167 4 252 35 219 78 388 249
463 471 24 71 29 101 31 211 1 71 -1 140 -6 155 -4 15 -13 52 -20 82 -22 95
-64 172 -136 250 -157 170 -220 235 -429 450 -541 552 -833 836 -885 858 -47
19 -108 22 -145 7z"/>
</g>
</svg>
